<?xml version="1.0" encoding="utf-8"?>
<!-- Generator: Adobe Illustrator 23.0.1, SVG Export Plug-In . SVG Version: 6.00 Build 0)  -->
<svg version="1.1" id="Camada_1" xmlns="http://www.w3.org/2000/svg" xmlns:xlink="http://www.w3.org/1999/xlink" x="0px" y="0px"
	 viewBox="0 0 512 512" style="enable-background:new 0 0 512 512;" xml:space="preserve">
<style type="text/css">
	.st0{fill:#FFFFFF;}
</style>
<path class="st0" d="M16.48,256.51c0-146.63,102.57-249.9,244.39-249.9c110.15,0,200.33,64.02,232,165.22h-44.06
	C421.27,95.41,349.68,48.6,261.56,48.6c-117.72,0-202.39,84.68-202.39,207.9s84.68,207.91,202.39,207.91
	c90.18,0,164.53-48.88,191.38-128.74H497c-29.6,103.95-122.54,170.73-236.13,170.73C119.05,506.41,16.48,403.14,16.48,256.51z"/>
<path class="st0" d="M151.08,150.09h17.33l88.48,133.18l88.48-133.18h17.03v212.84h-18.24V184.14l-79.67,119.5h-15.2l-79.66-119.5
	v178.79h-18.55V150.09z"/>
</svg>
