<svg id="Camada_1" data-name="Camada 1" xmlns="http://www.w3.org/2000/svg" viewBox="0 0 278.66 43.1"><defs><style>.cls-1{fill:#fff;}</style></defs><title>logo-cor-madeira-branco</title><path class="cls-1" d="M29.15,13.65C29.15,6.2,34.37,1,41.57,1A12,12,0,0,1,53.36,9.34H51.12c-1.4-3.88-5-6.26-9.51-6.26-6,0-10.29,4.31-10.29,10.57s4.31,10.56,10.29,10.56c4.58,0,8.36-2.48,9.72-6.54h2.24c-1.5,5.28-6.22,8.68-12,8.68C34.37,26.35,29.15,21.1,29.15,13.65Z" transform="translate(-0.38 -0.95)"/><path class="cls-1" d="M57.91,13.65C57.91,6.16,63.09,1,70.54,1s12.63,5.21,12.63,12.7S78,26.35,70.54,26.35,57.91,21.13,57.91,13.65ZM70.54,24.21c6.23,0,10.49-4.3,10.49-10.56S76.77,3.08,70.54,3.08,60.08,7.35,60.08,13.65,64.35,24.21,70.54,24.21Z" transform="translate(-0.38 -0.95)"/><path class="cls-1" d="M89.36,1.4h9.06c4.93,0,8.15,3,8.15,7.63a7.15,7.15,0,0,1-6.26,7.49L107,25.89H104.4l-6.57-9.2H91.5v9.2H89.36Zm8.85,13.26c3.89,0,6.19-2.13,6.19-5.63s-2.3-5.6-6.19-5.6H91.5V14.66Z" transform="translate(-0.38 -0.95)"/><path class="cls-1" d="M122.39,1.4h2l10.18,15.33L144.74,1.4h2V25.89h-2.1V5.32l-9.17,13.75h-1.75L124.52,5.32V25.89h-2.13Z" transform="translate(-0.38 -0.95)"/><path class="cls-1" d="M161.57,1.4h2l10.14,24.49H171.5L169,19.73H156.22l-2.52,6.16h-2.28Zm6.57,16.38L162.58,4.31l-5.53,13.47Z" transform="translate(-0.38 -0.95)"/><path class="cls-1" d="M178.5,1.4h7.73C194,1.4,199,6.27,199,13.65S194,25.89,186.23,25.89H178.5Zm7.73,22.46c6.51,0,10.57-4,10.57-10.21S192.7,3.43,186.16,3.43h-5.53V23.86Z" transform="translate(-0.38 -0.95)"/><path class="cls-1" d="M205.16,1.4h14.41v2H207.29v9h11.37v2H207.29V23.9H220v2h-14.8Z" transform="translate(-0.38 -0.95)"/><path class="cls-1" d="M226.46,1.4h2.14V25.89h-2.14Z" transform="translate(-0.38 -0.95)"/><path class="cls-1" d="M236.5,1.4h9.06c4.94,0,8.15,3,8.15,7.63a7.15,7.15,0,0,1-6.26,7.49l6.65,9.37h-2.55L245,16.69h-6.33v9.2H236.5Zm8.85,13.26c3.89,0,6.2-2.13,6.2-5.63s-2.31-5.6-6.2-5.6h-6.71V14.66Z" transform="translate(-0.38 -0.95)"/><path class="cls-1" d="M266.87,1.4h2L279,25.89H276.8l-2.55-6.16H261.52L259,25.89h-2.28Zm6.58,16.38L267.88,4.31l-5.52,13.47Z" transform="translate(-0.38 -0.95)"/><rect class="cls-1" width="16.16" height="43.1"/><path class="cls-1" d="M29.15,31.54h1v5.27A3.58,3.58,0,0,1,33.34,35c2.23,0,3.59,1.55,3.59,4v4.79H36V39.13c0-2-1-3.17-2.75-3.17a3.1,3.1,0,0,0-3.09,3.41v4.47h-1Z" transform="translate(-0.38 -0.95)"/><path class="cls-1" d="M43,39.53a4.51,4.51,0,1,1,4.52,4.52A4.32,4.32,0,0,1,43,39.53Zm4.52,3.59A3.58,3.58,0,1,0,44,39.53,3.4,3.4,0,0,0,47.53,43.12Z" transform="translate(-0.38 -0.95)"/><path class="cls-1" d="M58.78,35.25h.81l.09,1.39a3.24,3.24,0,0,1,3-1.61,3.18,3.18,0,0,1,3.14,2.06A3.4,3.4,0,0,1,69.06,35c2.16,0,3.55,1.48,3.55,3.87v4.94h-1V39.05c0-1.91-1.06-3.09-2.71-3.09s-2.77,1.21-2.77,3.16v4.72h-1V39.05c0-1.91-1-3.09-2.69-3.09s-2.78,1.21-2.78,3.16v4.72h-1Z" transform="translate(-0.38 -0.95)"/><path class="cls-1" d="M79.16,39.53a4.25,4.25,0,0,1,4.4-4.5c2.71,0,4.46,2,4.39,4.9H80.14a3.47,3.47,0,0,0,6.48,1.45H87.7a4.29,4.29,0,0,1-4.15,2.66A4.24,4.24,0,0,1,79.16,39.53ZM87,39.08A3.31,3.31,0,0,0,83.56,36a3.27,3.27,0,0,0-3.42,3.13Z" transform="translate(-0.38 -0.95)"/><path class="cls-1" d="M98,39.53a4.44,4.44,0,0,1,8-2.69v-5.3h1v12.3h-.8l-.11-1.7a4.22,4.22,0,0,1-3.67,1.91A4.3,4.3,0,0,1,98,39.53Zm4.51,3.59A3.58,3.58,0,1,0,99,39.53,3.4,3.4,0,0,0,102.5,43.12Z" transform="translate(-0.38 -0.95)"/><path class="cls-1" d="M113.72,39.53a4.25,4.25,0,0,1,4.4-4.5c2.71,0,4.45,2,4.38,4.9h-7.8a3.47,3.47,0,0,0,6.48,1.45h1.08a4.31,4.31,0,0,1-4.16,2.66A4.24,4.24,0,0,1,113.72,39.53Zm7.84-.45A3.31,3.31,0,0,0,118.12,36a3.26,3.26,0,0,0-3.42,3.13Z" transform="translate(-0.38 -0.95)"/><path class="cls-1" d="M128.09,39.53a4.26,4.26,0,0,1,4.38-4.5,4.21,4.21,0,0,1,4.22,3.08h-1a3.46,3.46,0,0,0-6.66,1.42,3.46,3.46,0,0,0,6.71,1.3h1a4.43,4.43,0,0,1-8.69-1.3Z" transform="translate(-0.38 -0.95)"/><path class="cls-1" d="M142.34,39.53a4.51,4.51,0,1,1,4.52,4.52A4.32,4.32,0,0,1,142.34,39.53Zm4.52,3.59a3.58,3.58,0,1,0-3.55-3.59A3.4,3.4,0,0,0,146.86,43.12Z" transform="translate(-0.38 -0.95)"/><path class="cls-1" d="M158.11,35.25h.81l.1,1.92a3.09,3.09,0,0,1,3.16-1.92h.71v.9h-.75c-1.84,0-3.07,1.12-3.07,3.73v4h-1Z" transform="translate(-0.38 -0.95)"/></svg>